<svg width="21" height="20" viewBox="0 0 21 20" fill="none" xmlns="http://www.w3.org/2000/svg">
<g clip-path="url(#clip0_535_430)">
<path fill-rule="evenodd" clip-rule="evenodd" d="M13.7799 5.9747C13.3561 5.99218 12.8545 6.00286 12.3078 5.99513C10.7234 5.97287 8.70108 5.79579 7.10833 5.13993L7.4891 4.21526C8.90166 4.79688 10.7684 4.97335 12.3218 4.99529C13.0909 5.00612 13.7685 4.97903 14.2535 4.94922C14.4958 4.93429 14.6895 4.91878 14.8218 4.90704C14.888 4.9012 14.9388 4.89629 14.9727 4.89285L15.0105 4.88897L15.0195 4.88804L15.0215 4.88778L15.6429 4.81876L15.5738 5.43986L15.5736 5.44215L15.5727 5.45113L15.5688 5.48896C15.5653 5.52286 15.5604 5.57366 15.5546 5.63981C15.5429 5.77218 15.5273 5.96583 15.5124 6.20815C15.4826 6.69311 15.4555 7.37073 15.4663 8.13985C15.4883 9.69325 15.6648 11.56 16.2464 12.9725L15.3217 13.3533C14.6659 11.7606 14.4888 9.73826 14.4665 8.15387C14.4588 7.6072 14.4695 7.10555 14.4869 6.68188L5.53101 15.6378L4.8239 14.9307L13.7799 5.9747Z" fill="white" stroke="white"/>
</g>
<defs>
<clipPath id="clip0_535_430">
<rect width="13" height="15" fill="white" transform="translate(9.79289 19.8997) rotate(-135)"/>
</clipPath>
</defs>
</svg>
